# xmcd
#
# Track frame offsets: 
#        150
#        16906
#        40072
#        60941
#        82144
#        107171
#        125909
#        142033
#        163688
#        182238
#        202891
#        226607
#        246114
#        272229
#        287655
#
# Disc length: 4076 seconds
#
# Revision: 0
# Processed by: cddbd v1.5.2PL0 Copyright (c) Steve Scherf et al.
# Submitted via: ExactAudioCopy v1.3
#
DISCID=d20fea0f
DTITLE=The Cash Box Kings - Black Night Fallin'
DYEAR=2005
DGENRE=Chicago Blues, Delta Blues
TTITLE0=Sarah
TTITLE1=Lost Sheep Blues
TTITLE2=Shur Fine Woman
TTITLE3=Fall Alseep And Cry
TTITLE4=Roll Steady
TTITLE5=Blues Through The Wintertime
TTITLE6=Baby Dropped An Axe On Me
TTITLE7=Baby Without You
TTITLE8='48' Blues
TTITLE9=Now I'm Free
TTITLE10=Juju
TTITLE11=Pick Up The Pieces
TTITLE12=Horizon Blues
TTITLE13=My Variety
TTITLE14=Sugar Pea
EXTD=
EXTT0=
EXTT1=
EXTT2=
EXTT3=
EXTT4=
EXTT5=
EXTT6=
EXTT7=
EXTT8=
EXTT9=
EXTT10=
EXTT11=
EXTT12=
EXTT13=
EXTT14=
PLAYORDER=
